<svg xmlns="http://www.w3.org/2000/svg" xmlns:xlink="http://www.w3.org/1999/xlink" width="2000" zoomAndPan="magnify" viewBox="0 0 1500 1499.999933" height="2000" preserveAspectRatio="xMidYMid meet" version="1.0"><defs><g/><clipPath id="4245b4efae"><path d="M 131.691406 131.691406 L 1368.308594 131.691406 L 1368.308594 1368.308594 L 131.691406 1368.308594 Z M 131.691406 131.691406 " clip-rule="nonzero"/></clipPath><clipPath id="aac44e141b"><path d="M 750 131.691406 C 408.515625 131.691406 131.691406 408.515625 131.691406 750 C 131.691406 1091.484375 408.515625 1368.308594 750 1368.308594 C 1091.484375 1368.308594 1368.308594 1091.484375 1368.308594 750 C 1368.308594 408.515625 1091.484375 131.691406 750 131.691406 Z M 750 131.691406 " clip-rule="nonzero"/></clipPath><clipPath id="6606aebf35"><path d="M 0.691406 0.691406 L 1237.308594 0.691406 L 1237.308594 1237.308594 L 0.691406 1237.308594 Z M 0.691406 0.691406 " clip-rule="nonzero"/></clipPath><clipPath id="8c92c7d2fb"><path d="M 619 0.691406 C 277.515625 0.691406 0.691406 277.515625 0.691406 619 C 0.691406 960.484375 277.515625 1237.308594 619 1237.308594 C 960.484375 1237.308594 1237.308594 960.484375 1237.308594 619 C 1237.308594 277.515625 960.484375 0.691406 619 0.691406 Z M 619 0.691406 " clip-rule="nonzero"/></clipPath><clipPath id="1f77cd09f8"><rect x="0" width="1238" y="0" height="1238"/></clipPath><clipPath id="058b4710bf"><rect x="0" width="74" y="0" height="204"/></clipPath><clipPath id="df8cd83ba8"><rect x="0" width="766" y="0" height="122"/></clipPath><clipPath id="74a1afa848"><rect x="0" width="60" y="0" height="205"/></clipPath></defs><g clip-path="url(#4245b4efae)"><g clip-path="url(#aac44e141b)"><g transform="matrix(1, 0, 0, 1, 131, 131)"><g clip-path="url(#1f77cd09f8)"><g clip-path="url(#6606aebf35)"><g clip-path="url(#8c92c7d2fb)"><path fill="#ffffff" d="M 0.691406 0.691406 L 1237.308594 0.691406 L 1237.308594 1237.308594 L 0.691406 1237.308594 Z M 0.691406 0.691406 " fill-opacity="1" fill-rule="nonzero"/></g></g></g></g></g></g><path fill="#8c52ff" d="M 1108.878906 574.089844 L 1021.28125 575.6875 C 1017.171875 575.761719 1014.8125 580.390625 1017.167969 583.753906 L 1030.722656 603.132812 C 1030.90625 603.394531 1030.839844 603.75 1030.589844 603.925781 L 739.90625 810.4375 C 739.527344 810.703125 739.007812 810.4375 739.007812 809.972656 L 739.007812 652.625 C 739.007812 650.550781 737.910156 648.625 736.128906 647.570312 C 734.347656 646.507812 732.132812 646.464844 730.308594 647.457031 L 388.152344 833.507812 C 386.78125 834.25 385.761719 835.515625 385.320312 837.015625 C 384.878906 838.503906 385.046875 840.121094 385.792969 841.488281 L 400.417969 868.382812 C 401.964844 871.238281 405.539062 872.292969 408.402344 870.742188 L 695.78125 714.46875 C 696.164062 714.265625 696.625 714.535156 696.625 714.972656 L 696.625 881.367188 C 696.625 883.050781 697.144531 884.769531 698.351562 885.945312 C 699.535156 887.097656 701.019531 887.65625 702.507812 887.65625 C 703.710938 887.65625 704.902344 887.289062 705.921875 886.570312 L 1054.875 638.660156 C 1055.136719 638.476562 1055.488281 638.542969 1055.675781 638.796875 L 1073.242188 663.917969 C 1075.597656 667.28125 1080.757812 666.652344 1082.234375 662.824219 L 1113.761719 581.074219 C 1115.070312 577.671875 1112.519531 574.023438 1108.878906 574.089844 " fill-opacity="1" fill-rule="nonzero"/><path fill="#000000" d="M 604.542969 467.519531 L 604.542969 698.082031 C 604.542969 698.289062 604.429688 698.480469 604.246094 698.578125 L 521.230469 743.734375 C 520.851562 743.941406 520.390625 743.664062 520.390625 743.234375 L 520.390625 467.519531 C 520.390625 467.199219 520.644531 466.949219 520.960938 466.949219 L 603.976562 466.949219 C 604.289062 466.949219 604.542969 467.199219 604.542969 467.519531 " fill-opacity="1" fill-rule="nonzero"/><path fill="#000000" d="M 941.113281 304.652344 L 941.113281 648.417969 C 941.113281 648.601562 941.023438 648.773438 940.867188 648.882812 L 857.851562 707.855469 C 857.472656 708.121094 856.957031 707.855469 856.957031 707.390625 L 856.957031 304.652344 C 856.957031 304.335938 857.207031 304.082031 857.527344 304.082031 L 940.542969 304.082031 C 940.851562 304.082031 941.113281 304.335938 941.113281 304.652344 " fill-opacity="1" fill-rule="nonzero"/><path fill="#000000" d="M 823.425781 514.585938 L 823.425781 732.027344 C 823.425781 732.210938 823.339844 732.390625 823.191406 732.492188 L 755.21875 780.78125 C 754.84375 781.042969 754.316406 780.773438 754.316406 780.316406 L 754.316406 652.621094 C 754.316406 645.199219 750.339844 638.210938 743.957031 634.421875 C 742.59375 633.617188 741.167969 632.953125 739.6875 632.488281 C 739.453125 632.414062 739.296875 632.207031 739.296875 631.964844 L 739.296875 514.585938 C 739.296875 514.269531 739.550781 514.011719 739.867188 514.011719 L 822.855469 514.011719 C 823.167969 514.011719 823.425781 514.269531 823.425781 514.585938 " fill-opacity="1" fill-rule="nonzero"/><path fill="#8c52ff" d="M 713.984375 372.558594 L 713.984375 638.578125 C 713.984375 638.785156 713.871094 638.976562 713.6875 639.082031 L 630.695312 684.210938 C 630.316406 684.417969 629.855469 684.144531 629.855469 683.707031 L 629.855469 372.558594 C 629.855469 372.238281 630.113281 371.984375 630.421875 371.984375 L 713.414062 371.984375 C 713.730469 371.984375 713.984375 372.238281 713.984375 372.558594 " fill-opacity="1" fill-rule="nonzero"/><g transform="matrix(1, 0, 0, 1, 335, 889)"><g clip-path="url(#058b4710bf)"><g fill="#000000" fill-opacity="1"><g transform="translate(3.710769, 155.674337)"><g><path d="M 29.625 1.109375 C 21.082031 1.109375 14.71875 -1.898438 10.53125 -7.921875 C 6.351562 -13.941406 4.265625 -23.0625 4.265625 -35.28125 L 4.265625 -86.265625 C 4.265625 -97.191406 6.695312 -105.457031 11.5625 -111.0625 C 16.4375 -116.664062 23.695312 -119.46875 33.34375 -119.46875 C 41.15625 -119.46875 47.21875 -117.90625 51.53125 -114.78125 C 55.851562 -111.65625 58.835938 -107.109375 60.484375 -101.140625 C 62.140625 -95.171875 62.96875 -87.5 62.96875 -78.125 L 39.828125 -78.125 L 39.828125 -88.734375 C 39.828125 -91.585938 39.4375 -93.796875 38.65625 -95.359375 C 37.875 -96.921875 36.472656 -97.703125 34.453125 -97.703125 C 29.953125 -97.703125 27.703125 -94.757812 27.703125 -88.875 L 27.703125 -31.5625 C 27.703125 -27.976562 28.160156 -25.265625 29.078125 -23.421875 C 29.992188 -21.585938 31.597656 -20.671875 33.890625 -20.671875 C 36.191406 -20.671875 37.800781 -21.585938 38.71875 -23.421875 C 39.632812 -25.265625 40.09375 -27.976562 40.09375 -31.5625 L 40.09375 -48.5 L 33.765625 -48.5 L 33.765625 -68.90625 L 62.703125 -68.90625 L 62.703125 0 L 53.1875 0 L 49.1875 -9.921875 C 44.96875 -2.566406 38.445312 1.109375 29.625 1.109375 Z M 29.625 1.109375 "/></g></g></g></g></g><g transform="matrix(1, 0, 0, 1, 404, 1067)"><g clip-path="url(#df8cd83ba8)"><g fill="#000000" fill-opacity="1"><g transform="translate(1.291839, 93.869412)"><g><path d="M 23.375 0.734375 C 17.59375 0.734375 12.765625 -1.078125 8.890625 -4.703125 C 4.972656 -8.273438 3.015625 -12.832031 3.015625 -18.375 C 3.015625 -23.90625 4.972656 -28.484375 8.890625 -32.109375 C 12.765625 -35.691406 17.59375 -37.484375 23.375 -37.484375 C 27.582031 -37.484375 31.300781 -36.453125 34.53125 -34.390625 C 37.769531 -32.328125 40.148438 -29.410156 41.671875 -25.640625 L 31.890625 -21.75 C 31.253906 -23.5625 30.175781 -25.007812 28.65625 -26.09375 C 27.132812 -27.113281 25.375 -27.625 23.375 -27.625 C 20.625 -27.625 18.394531 -26.769531 16.6875 -25.0625 C 14.96875 -23.34375 14.109375 -21.113281 14.109375 -18.375 C 14.109375 -15.625 14.96875 -13.414062 16.6875 -11.75 C 18.394531 -10.039062 20.625 -9.1875 23.375 -9.1875 C 25.425781 -9.1875 27.210938 -9.722656 28.734375 -10.796875 C 30.203125 -11.828125 31.253906 -13.222656 31.890625 -14.984375 L 41.671875 -11.171875 C 40.148438 -7.347656 37.769531 -4.40625 34.53125 -2.34375 C 31.300781 -0.289062 27.582031 0.734375 23.375 0.734375 Z M 23.375 0.734375 "/></g></g></g><g fill="#000000" fill-opacity="1"><g transform="translate(44.492999, 93.869412)"><g><path d="M 23.296875 0.734375 C 17.660156 0.734375 12.882812 -1.125 8.96875 -4.84375 C 5 -8.519531 3.015625 -13.03125 3.015625 -18.375 C 3.015625 -23.707031 5 -28.238281 8.96875 -31.96875 C 12.882812 -35.644531 17.660156 -37.484375 23.296875 -37.484375 C 28.972656 -37.484375 33.773438 -35.644531 37.703125 -31.96875 C 41.617188 -28.238281 43.578125 -23.707031 43.578125 -18.375 C 43.578125 -13.03125 41.617188 -8.519531 37.703125 -4.84375 C 33.773438 -1.125 28.972656 0.734375 23.296875 0.734375 Z M 23.296875 -9.1875 C 25.835938 -9.1875 28.015625 -10.09375 29.828125 -11.90625 C 31.640625 -13.664062 32.546875 -15.820312 32.546875 -18.375 C 32.546875 -20.914062 31.640625 -23.09375 29.828125 -24.90625 C 28.015625 -26.71875 25.835938 -27.625 23.296875 -27.625 C 20.742188 -27.625 18.585938 -26.742188 16.828125 -24.984375 C 15.015625 -23.171875 14.109375 -20.96875 14.109375 -18.375 C 14.109375 -15.820312 14.988281 -13.664062 16.75 -11.90625 C 18.519531 -10.09375 20.703125 -9.1875 23.296875 -9.1875 Z M 23.296875 -9.1875 "/></g></g></g><g fill="#000000" fill-opacity="1"><g transform="translate(91.07383, 93.869412)"><g><path d="M 47.46875 -37.484375 C 51.382812 -37.484375 54.644531 -36.132812 57.25 -33.4375 C 59.84375 -30.6875 61.140625 -27.304688 61.140625 -23.296875 L 61.140625 0 L 50.046875 0 L 50.046875 -22.125 C 50.046875 -23.738281 49.53125 -25.0625 48.5 -26.09375 C 47.46875 -27.113281 46.117188 -27.625 44.453125 -27.625 C 42.640625 -27.625 41.269531 -27.0625 40.34375 -25.9375 C 39.363281 -24.757812 38.875 -23.289062 38.875 -21.53125 L 38.875 0 L 27.84375 0 L 27.84375 -22.125 C 27.84375 -23.738281 27.332031 -25.0625 26.3125 -26.09375 C 25.226562 -27.113281 23.851562 -27.625 22.1875 -27.625 C 20.425781 -27.625 19.082031 -27.0625 18.15625 -25.9375 C 17.175781 -24.757812 16.6875 -23.289062 16.6875 -21.53125 L 16.6875 0 L 5.578125 0 L 5.578125 -36.75 L 16.6875 -36.75 L 16.6875 -32.921875 C 19.082031 -35.960938 22.117188 -37.484375 25.796875 -37.484375 C 27.953125 -37.484375 29.984375 -36.96875 31.890625 -35.9375 C 33.753906 -34.851562 35.273438 -33.382812 36.453125 -31.53125 C 39.046875 -35.5 42.71875 -37.484375 47.46875 -37.484375 Z M 47.46875 -37.484375 "/></g></g></g><g fill="#000000" fill-opacity="1"><g transform="translate(156.904183, 93.869412)"><g><path d="M 27.5625 -37.484375 C 32.550781 -37.484375 36.8125 -35.617188 40.34375 -31.890625 C 43.820312 -28.171875 45.5625 -23.664062 45.5625 -18.375 C 45.5625 -13.082031 43.820312 -8.570312 40.34375 -4.84375 C 36.8125 -1.125 32.550781 0.734375 27.5625 0.734375 C 23.289062 0.734375 19.664062 -0.632812 16.6875 -3.375 L 16.6875 18.375 L 5.578125 18.375 L 5.578125 -36.75 L 16.6875 -36.75 L 16.6875 -33.359375 C 19.664062 -36.109375 23.289062 -37.484375 27.5625 -37.484375 Z M 25.28125 -9.1875 C 27.820312 -9.1875 30 -10.09375 31.8125 -11.90625 C 33.582031 -13.664062 34.46875 -15.820312 34.46875 -18.375 C 34.46875 -20.96875 33.582031 -23.171875 31.8125 -24.984375 C 30 -26.742188 27.820312 -27.625 25.28125 -27.625 C 22.726562 -27.625 20.546875 -26.71875 18.734375 -24.90625 C 16.921875 -23.09375 16.015625 -20.914062 16.015625 -18.375 C 16.015625 -15.820312 16.921875 -13.664062 18.734375 -11.90625 C 20.503906 -10.09375 22.6875 -9.1875 25.28125 -9.1875 Z M 25.28125 -9.1875 "/></g></g></g><g fill="#000000" fill-opacity="1"><g transform="translate(205.468758, 93.869412)"><g><path d="M 32.046875 -36.75 L 43.0625 -36.75 L 43.0625 0 L 32.046875 0 L 32.046875 -3.75 C 29.347656 -0.757812 25.671875 0.734375 21.015625 0.734375 C 16.015625 0.734375 11.773438 -1.125 8.296875 -4.84375 C 4.773438 -8.570312 3.015625 -13.082031 3.015625 -18.375 C 3.015625 -23.664062 4.773438 -28.171875 8.296875 -31.890625 C 11.773438 -35.617188 16.015625 -37.484375 21.015625 -37.484375 C 25.671875 -37.484375 29.347656 -35.988281 32.046875 -33 Z M 23.296875 -9.1875 C 25.890625 -9.1875 28.09375 -10.09375 29.90625 -11.90625 C 31.664062 -13.664062 32.546875 -15.820312 32.546875 -18.375 C 32.546875 -20.914062 31.664062 -23.09375 29.90625 -24.90625 C 28.09375 -26.71875 25.890625 -27.625 23.296875 -27.625 C 20.742188 -27.625 18.585938 -26.742188 16.828125 -24.984375 C 15.015625 -23.171875 14.109375 -20.96875 14.109375 -18.375 C 14.109375 -15.820312 14.988281 -13.664062 16.75 -11.90625 C 18.519531 -10.09375 20.703125 -9.1875 23.296875 -9.1875 Z M 23.296875 -9.1875 "/></g></g></g><g fill="#000000" fill-opacity="1"><g transform="translate(254.106817, 93.869412)"><g><path d="M 26.96875 -37.484375 C 30.644531 -37.484375 33.753906 -36.160156 36.296875 -33.515625 C 38.847656 -30.816406 40.125 -27.484375 40.125 -23.515625 L 40.125 0 L 29.03125 0 L 29.03125 -22.1875 C 29.03125 -23.851562 28.488281 -25.203125 27.40625 -26.234375 C 26.332031 -27.210938 24.9375 -27.703125 23.21875 -27.703125 C 21.351562 -27.703125 19.8125 -27.164062 18.59375 -26.09375 C 17.363281 -24.957031 16.726562 -23.582031 16.6875 -21.96875 L 16.6875 0 L 5.578125 0 L 5.578125 -36.75 L 16.6875 -36.75 L 16.6875 -33 C 19.332031 -35.988281 22.757812 -37.484375 26.96875 -37.484375 Z M 26.96875 -37.484375 "/></g></g></g><g fill="#000000" fill-opacity="1"><g transform="translate(298.924355, 93.869412)"><g><path d="M 11.015625 -43.5 C 9.359375 -43.5 7.914062 -44.113281 6.6875 -45.34375 C 5.457031 -46.5625 4.84375 -48.003906 4.84375 -49.671875 C 4.84375 -51.390625 5.457031 -52.859375 6.6875 -54.078125 C 7.914062 -55.253906 9.359375 -55.84375 11.015625 -55.84375 C 12.734375 -55.84375 14.207031 -55.253906 15.4375 -54.078125 C 16.65625 -52.859375 17.265625 -51.390625 17.265625 -49.671875 C 17.265625 -48.003906 16.65625 -46.5625 15.4375 -45.34375 C 14.15625 -44.113281 12.679688 -43.5 11.015625 -43.5 Z M 5.515625 0 L 5.515625 -36.75 L 16.53125 -36.75 L 16.53125 0 Z M 5.515625 0 "/></g></g></g><g fill="#000000" fill-opacity="1"><g transform="translate(321.039215, 93.869412)"><g><path d="M 32.046875 -36.75 L 43.0625 -36.75 L 43.0625 0 L 32.046875 0 L 32.046875 -3.75 C 29.347656 -0.757812 25.671875 0.734375 21.015625 0.734375 C 16.015625 0.734375 11.773438 -1.125 8.296875 -4.84375 C 4.773438 -8.570312 3.015625 -13.082031 3.015625 -18.375 C 3.015625 -23.664062 4.773438 -28.171875 8.296875 -31.890625 C 11.773438 -35.617188 16.015625 -37.484375 21.015625 -37.484375 C 25.671875 -37.484375 29.347656 -35.988281 32.046875 -33 Z M 23.296875 -9.1875 C 25.890625 -9.1875 28.09375 -10.09375 29.90625 -11.90625 C 31.664062 -13.664062 32.546875 -15.820312 32.546875 -18.375 C 32.546875 -20.914062 31.664062 -23.09375 29.90625 -24.90625 C 28.09375 -26.71875 25.890625 -27.625 23.296875 -27.625 C 20.742188 -27.625 18.585938 -26.742188 16.828125 -24.984375 C 15.015625 -23.171875 14.109375 -20.96875 14.109375 -18.375 C 14.109375 -15.820312 14.988281 -13.664062 16.75 -11.90625 C 18.519531 -10.09375 20.703125 -9.1875 23.296875 -9.1875 Z M 23.296875 -9.1875 "/></g></g></g><g fill="#000000" fill-opacity="1"><g transform="translate(369.677274, 93.869412)"><g/></g></g><g fill="#000000" fill-opacity="1"><g transform="translate(389.220678, 93.869412)"><g><path d="M 27.265625 -36.75 L 27.265625 -28.078125 L 18.4375 -28.078125 L 18.4375 0 L 7.34375 0 L 7.34375 -28.078125 L 1.171875 -28.078125 L 1.171875 -36.75 L 7.34375 -36.75 L 7.34375 -42.1875 C 7.34375 -46.34375 8.566406 -49.671875 11.015625 -52.171875 C 13.472656 -54.617188 16.78125 -55.84375 20.9375 -55.84375 C 23.976562 -55.84375 26.035156 -55.453125 27.109375 -54.671875 L 27.109375 -44.671875 C 25.941406 -45.609375 24.523438 -46.078125 22.859375 -46.078125 C 21.484375 -46.078125 20.40625 -45.609375 19.625 -44.671875 C 18.832031 -43.742188 18.4375 -42.472656 18.4375 -40.859375 L 18.4375 -36.75 Z M 27.265625 -36.75 "/></g></g></g><g fill="#000000" fill-opacity="1"><g transform="translate(416.992836, 93.869412)"><g><path d="M 11.015625 -43.5 C 9.359375 -43.5 7.914062 -44.113281 6.6875 -45.34375 C 5.457031 -46.5625 4.84375 -48.003906 4.84375 -49.671875 C 4.84375 -51.390625 5.457031 -52.859375 6.6875 -54.078125 C 7.914062 -55.253906 9.359375 -55.84375 11.015625 -55.84375 C 12.734375 -55.84375 14.207031 -55.253906 15.4375 -54.078125 C 16.65625 -52.859375 17.265625 -51.390625 17.265625 -49.671875 C 17.265625 -48.003906 16.65625 -46.5625 15.4375 -45.34375 C 14.15625 -44.113281 12.679688 -43.5 11.015625 -43.5 Z M 5.515625 0 L 5.515625 -36.75 L 16.53125 -36.75 L 16.53125 0 Z M 5.515625 0 "/></g></g></g><g fill="#000000" fill-opacity="1"><g transform="translate(439.107697, 93.869412)"><g><path d="M 26.96875 -37.484375 C 30.644531 -37.484375 33.753906 -36.160156 36.296875 -33.515625 C 38.847656 -30.816406 40.125 -27.484375 40.125 -23.515625 L 40.125 0 L 29.03125 0 L 29.03125 -22.1875 C 29.03125 -23.851562 28.488281 -25.203125 27.40625 -26.234375 C 26.332031 -27.210938 24.9375 -27.703125 23.21875 -27.703125 C 21.351562 -27.703125 19.8125 -27.164062 18.59375 -26.09375 C 17.363281 -24.957031 16.726562 -23.582031 16.6875 -21.96875 L 16.6875 0 L 5.578125 0 L 5.578125 -36.75 L 16.6875 -36.75 L 16.6875 -33 C 19.332031 -35.988281 22.757812 -37.484375 26.96875 -37.484375 Z M 26.96875 -37.484375 "/></g></g></g><g fill="#000000" fill-opacity="1"><g transform="translate(483.925234, 93.869412)"><g><path d="M 32.046875 -36.75 L 43.0625 -36.75 L 43.0625 0 L 32.046875 0 L 32.046875 -3.75 C 29.347656 -0.757812 25.671875 0.734375 21.015625 0.734375 C 16.015625 0.734375 11.773438 -1.125 8.296875 -4.84375 C 4.773438 -8.570312 3.015625 -13.082031 3.015625 -18.375 C 3.015625 -23.664062 4.773438 -28.171875 8.296875 -31.890625 C 11.773438 -35.617188 16.015625 -37.484375 21.015625 -37.484375 C 25.671875 -37.484375 29.347656 -35.988281 32.046875 -33 Z M 23.296875 -9.1875 C 25.890625 -9.1875 28.09375 -10.09375 29.90625 -11.90625 C 31.664062 -13.664062 32.546875 -15.820312 32.546875 -18.375 C 32.546875 -20.914062 31.664062 -23.09375 29.90625 -24.90625 C 28.09375 -26.71875 25.890625 -27.625 23.296875 -27.625 C 20.742188 -27.625 18.585938 -26.742188 16.828125 -24.984375 C 15.015625 -23.171875 14.109375 -20.96875 14.109375 -18.375 C 14.109375 -15.820312 14.988281 -13.664062 16.75 -11.90625 C 18.519531 -10.09375 20.703125 -9.1875 23.296875 -9.1875 Z M 23.296875 -9.1875 "/></g></g></g><g fill="#000000" fill-opacity="1"><g transform="translate(532.563293, 93.869412)"><g><path d="M 26.96875 -37.484375 C 30.644531 -37.484375 33.753906 -36.160156 36.296875 -33.515625 C 38.847656 -30.816406 40.125 -27.484375 40.125 -23.515625 L 40.125 0 L 29.03125 0 L 29.03125 -22.1875 C 29.03125 -23.851562 28.488281 -25.203125 27.40625 -26.234375 C 26.332031 -27.210938 24.9375 -27.703125 23.21875 -27.703125 C 21.351562 -27.703125 19.8125 -27.164062 18.59375 -26.09375 C 17.363281 -24.957031 16.726562 -23.582031 16.6875 -21.96875 L 16.6875 0 L 5.578125 0 L 5.578125 -36.75 L 16.6875 -36.75 L 16.6875 -33 C 19.332031 -35.988281 22.757812 -37.484375 26.96875 -37.484375 Z M 26.96875 -37.484375 "/></g></g></g><g fill="#000000" fill-opacity="1"><g transform="translate(577.380831, 93.869412)"><g><path d="M 23.375 0.734375 C 17.59375 0.734375 12.765625 -1.078125 8.890625 -4.703125 C 4.972656 -8.273438 3.015625 -12.832031 3.015625 -18.375 C 3.015625 -23.90625 4.972656 -28.484375 8.890625 -32.109375 C 12.765625 -35.691406 17.59375 -37.484375 23.375 -37.484375 C 27.582031 -37.484375 31.300781 -36.453125 34.53125 -34.390625 C 37.769531 -32.328125 40.148438 -29.410156 41.671875 -25.640625 L 31.890625 -21.75 C 31.253906 -23.5625 30.175781 -25.007812 28.65625 -26.09375 C 27.132812 -27.113281 25.375 -27.625 23.375 -27.625 C 20.625 -27.625 18.394531 -26.769531 16.6875 -25.0625 C 14.96875 -23.34375 14.109375 -21.113281 14.109375 -18.375 C 14.109375 -15.625 14.96875 -13.414062 16.6875 -11.75 C 18.394531 -10.039062 20.625 -9.1875 23.375 -9.1875 C 25.425781 -9.1875 27.210938 -9.722656 28.734375 -10.796875 C 30.203125 -11.828125 31.253906 -13.222656 31.890625 -14.984375 L 41.671875 -11.171875 C 40.148438 -7.347656 37.769531 -4.40625 34.53125 -2.34375 C 31.300781 -0.289062 27.582031 0.734375 23.375 0.734375 Z M 23.375 0.734375 "/></g></g></g><g fill="#000000" fill-opacity="1"><g transform="translate(620.58199, 93.869412)"><g><path d="M 41.4375 -18.734375 L 41.296875 -16.234375 L 14.25 -16.234375 C 14.59375 -13.742188 15.578125 -11.785156 17.203125 -10.359375 C 18.765625 -8.890625 20.671875 -8.15625 22.921875 -8.15625 C 26.847656 -8.15625 29.617188 -9.769531 31.234375 -13 L 40.203125 -9.328125 C 38.828125 -6.242188 36.617188 -3.796875 33.578125 -1.984375 C 30.492188 -0.171875 27.066406 0.734375 23.296875 0.734375 C 16.773438 0.734375 11.773438 -1.050781 8.296875 -4.625 C 4.773438 -8.207031 3.015625 -12.789062 3.015625 -18.375 C 3.015625 -23.8125 4.851562 -28.367188 8.53125 -32.046875 C 12.15625 -35.710938 16.929688 -37.546875 22.859375 -37.546875 C 28.335938 -37.546875 32.796875 -35.832031 36.234375 -32.40625 C 39.660156 -28.976562 41.394531 -24.421875 41.4375 -18.734375 Z M 22.5625 -28.875 C 18.832031 -28.875 16.285156 -27.0625 14.921875 -23.4375 L 29.984375 -23.4375 C 28.753906 -27.0625 26.28125 -28.875 22.5625 -28.875 Z M 22.5625 -28.875 "/></g></g></g><g fill="#000000" fill-opacity="1"><g transform="translate(665.032162, 93.869412)"><g><path d="M 11.015625 -43.5 C 9.359375 -43.5 7.914062 -44.113281 6.6875 -45.34375 C 5.457031 -46.5625 4.84375 -48.003906 4.84375 -49.671875 C 4.84375 -51.390625 5.457031 -52.859375 6.6875 -54.078125 C 7.914062 -55.253906 9.359375 -55.84375 11.015625 -55.84375 C 12.734375 -55.84375 14.207031 -55.253906 15.4375 -54.078125 C 16.65625 -52.859375 17.265625 -51.390625 17.265625 -49.671875 C 17.265625 -48.003906 16.65625 -46.5625 15.4375 -45.34375 C 14.15625 -44.113281 12.679688 -43.5 11.015625 -43.5 Z M 5.515625 0 L 5.515625 -36.75 L 16.53125 -36.75 L 16.53125 0 Z M 5.515625 0 "/></g></g></g><g fill="#000000" fill-opacity="1"><g transform="translate(687.147022, 93.869412)"><g><path d="M 25.578125 -37.25 C 26.796875 -37.25 27.75 -37.082031 28.4375 -36.75 L 28.4375 -26.890625 C 27.164062 -27.234375 26.085938 -27.40625 25.203125 -27.40625 C 22.660156 -27.40625 20.601562 -26.550781 19.03125 -24.84375 C 17.46875 -23.125 16.6875 -20.796875 16.6875 -17.859375 L 16.6875 0 L 5.578125 0 L 5.578125 -36.75 L 16.6875 -36.75 L 16.6875 -31.59375 C 18.882812 -35.363281 21.847656 -37.25 25.578125 -37.25 Z M 25.578125 -37.25 "/></g></g></g><g fill="#000000" fill-opacity="1"><g transform="translate(716.462075, 93.869412)"><g><path d="M 32.046875 -36.75 L 43.0625 -36.75 L 43.0625 0 L 32.046875 0 L 32.046875 -3.75 C 29.347656 -0.757812 25.671875 0.734375 21.015625 0.734375 C 16.015625 0.734375 11.773438 -1.125 8.296875 -4.84375 C 4.773438 -8.570312 3.015625 -13.082031 3.015625 -18.375 C 3.015625 -23.664062 4.773438 -28.171875 8.296875 -31.890625 C 11.773438 -35.617188 16.015625 -37.484375 21.015625 -37.484375 C 25.671875 -37.484375 29.347656 -35.988281 32.046875 -33 Z M 23.296875 -9.1875 C 25.890625 -9.1875 28.09375 -10.09375 29.90625 -11.90625 C 31.664062 -13.664062 32.546875 -15.820312 32.546875 -18.375 C 32.546875 -20.914062 31.664062 -23.09375 29.90625 -24.90625 C 28.09375 -26.71875 25.890625 -27.625 23.296875 -27.625 C 20.742188 -27.625 18.585938 -26.742188 16.828125 -24.984375 C 15.015625 -23.171875 14.109375 -20.96875 14.109375 -18.375 C 14.109375 -15.820312 14.988281 -13.664062 16.75 -11.90625 C 18.519531 -10.09375 20.703125 -9.1875 23.296875 -9.1875 Z M 23.296875 -9.1875 "/></g></g></g></g></g><g fill="#000000" fill-opacity="1"><g transform="translate(407.569734, 1051.697937)"><g><path d="M 1.796875 0 L 11.734375 -102.90625 L 46.59375 -102.90625 L 56.421875 0 L 36.890625 0 L 35.453125 -16.65625 L 23 -16.65625 L 21.796875 0 Z M 24.5625 -33.0625 L 33.90625 -33.0625 L 29.34375 -85.421875 L 28.390625 -85.421875 Z M 24.5625 -33.0625 "/></g></g></g><g fill="#000000" fill-opacity="1"><g transform="translate(465.667424, 1051.697937)"><g><path d="M 28.984375 0.953125 C 19.640625 0.953125 12.890625 -1.359375 8.734375 -5.984375 C 4.585938 -10.617188 2.515625 -18.085938 2.515625 -28.390625 L 2.515625 -38.453125 L 22.765625 -38.453125 L 22.765625 -25.640625 C 22.765625 -20.523438 24.398438 -17.96875 27.671875 -17.96875 C 29.503906 -17.96875 30.78125 -18.503906 31.5 -19.578125 C 32.21875 -20.660156 32.578125 -22.476562 32.578125 -25.03125 C 32.578125 -28.382812 32.175781 -31.160156 31.375 -33.359375 C 30.582031 -35.554688 29.566406 -37.394531 28.328125 -38.875 C 27.085938 -40.351562 24.875 -42.648438 21.6875 -45.765625 L 12.8125 -54.625 C 5.945312 -61.332031 2.515625 -68.757812 2.515625 -76.90625 C 2.515625 -85.695312 4.53125 -92.382812 8.5625 -96.96875 C 12.59375 -101.5625 18.484375 -103.859375 26.234375 -103.859375 C 35.492188 -103.859375 42.160156 -101.398438 46.234375 -96.484375 C 50.304688 -91.578125 52.34375 -83.894531 52.34375 -73.4375 L 31.390625 -73.4375 L 31.265625 -80.5 C 31.265625 -81.863281 30.882812 -82.941406 30.125 -83.734375 C 29.363281 -84.535156 28.304688 -84.9375 26.953125 -84.9375 C 25.359375 -84.9375 24.160156 -84.492188 23.359375 -83.609375 C 22.554688 -82.734375 22.15625 -81.539062 22.15625 -80.03125 C 22.15625 -76.675781 24.070312 -73.203125 27.90625 -69.609375 L 39.890625 -58.09375 C 42.679688 -55.382812 44.992188 -52.8125 46.828125 -50.375 C 48.671875 -47.9375 50.148438 -45.0625 51.265625 -41.75 C 52.390625 -38.4375 52.953125 -34.503906 52.953125 -29.953125 C 52.953125 -19.804688 51.09375 -12.117188 47.375 -6.890625 C 43.664062 -1.660156 37.535156 0.953125 28.984375 0.953125 Z M 28.984375 0.953125 "/></g></g></g><g fill="#000000" fill-opacity="1"><g transform="translate(520.890175, 1051.697937)"><g><path d="M 13.421875 0 L 13.421875 -83.140625 L 1.203125 -83.140625 L 1.203125 -102.90625 L 46.234375 -102.90625 L 46.234375 -83.140625 L 34.015625 -83.140625 L 34.015625 0 Z M 13.421875 0 "/></g></g></g><g fill="#000000" fill-opacity="1"><g transform="translate(568.326641, 1051.697937)"><g><path d="M 29.109375 0.953125 C 20.804688 0.953125 14.5 -1.578125 10.1875 -6.640625 C 5.875 -11.710938 3.71875 -18.84375 3.71875 -28.03125 L 3.71875 -77.03125 C 3.71875 -85.894531 5.875 -92.582031 10.1875 -97.09375 C 14.5 -101.601562 20.804688 -103.859375 29.109375 -103.859375 C 37.410156 -103.859375 43.71875 -101.601562 48.03125 -97.09375 C 52.34375 -92.582031 54.5 -85.894531 54.5 -77.03125 L 54.5 -28.03125 C 54.5 -18.769531 52.34375 -11.625 48.03125 -6.59375 C 43.71875 -1.5625 37.410156 0.953125 29.109375 0.953125 Z M 29.109375 -17.96875 C 30.941406 -17.96875 32.175781 -18.765625 32.8125 -20.359375 C 33.457031 -21.960938 33.78125 -24.203125 33.78125 -27.078125 L 33.78125 -77.390625 C 33.78125 -79.628906 33.476562 -81.445312 32.875 -82.84375 C 32.28125 -84.238281 31.066406 -84.9375 29.234375 -84.9375 C 25.796875 -84.9375 24.078125 -82.34375 24.078125 -77.15625 L 24.078125 -26.953125 C 24.078125 -23.992188 24.4375 -21.753906 25.15625 -20.234375 C 25.875 -18.722656 27.191406 -17.96875 29.109375 -17.96875 Z M 29.109375 -17.96875 "/></g></g></g><g transform="matrix(1, 0, 0, 1, 657, 888)"><g clip-path="url(#74a1afa848)"><g fill="#000000" fill-opacity="1"><g transform="translate(2.273963, 155.965001)"><g><path d="M 2.203125 0 L 2.203125 -21.5 L 29.21875 -96.59375 L 4.828125 -96.59375 L 4.828125 -118.375 L 54.296875 -118.375 L 54.296875 -97.703125 L 26.59375 -21.765625 L 53.046875 -21.765625 L 53.046875 0 Z M 2.203125 0 "/></g></g></g></g></g><g fill="#000000" fill-opacity="1"><g transform="translate(720.105047, 1051.677609)"><g><path d="M 4.5625 0 L 4.5625 -103.078125 L 45.84375 -103.078125 L 45.84375 -83.15625 L 25.5625 -83.15625 L 25.5625 -63.125 L 45 -63.125 L 45 -43.6875 L 25.5625 -43.6875 L 25.5625 -20.046875 L 47.15625 -20.046875 L 47.15625 0 Z M 4.5625 0 "/></g></g></g><g fill="#000000" fill-opacity="1"><g transform="translate(769.545065, 1051.677609)"><g><path d="M 4.5625 -103.078125 L 36.234375 -103.078125 C 41.273438 -103.078125 45.175781 -101.9375 47.9375 -99.65625 C 50.695312 -97.375 52.554688 -94.171875 53.515625 -90.046875 C 54.472656 -85.929688 54.953125 -80.675781 54.953125 -74.28125 C 54.953125 -68.4375 54.191406 -63.875 52.671875 -60.59375 C 51.160156 -57.320312 48.523438 -55.046875 44.765625 -53.765625 C 47.878906 -53.117188 50.132812 -51.554688 51.53125 -49.078125 C 52.9375 -46.597656 53.640625 -43.238281 53.640625 -39 L 53.40625 0 L 33.234375 0 L 33.234375 -40.3125 C 33.234375 -43.195312 32.671875 -45.039062 31.546875 -45.84375 C 30.429688 -46.644531 28.394531 -47.046875 25.4375 -47.046875 L 25.4375 0 L 4.5625 0 Z M 30.484375 -64.921875 C 33.359375 -64.921875 34.796875 -68.039062 34.796875 -74.28125 C 34.796875 -77 34.675781 -79.035156 34.4375 -80.390625 C 34.195312 -81.753906 33.753906 -82.695312 33.109375 -83.21875 C 32.472656 -83.738281 31.554688 -84 30.359375 -84 L 25.5625 -84 L 25.5625 -64.921875 Z M 30.484375 -64.921875 "/></g></g></g><g fill="#000000" fill-opacity="1"><g transform="translate(826.785088, 1051.677609)"><g><path d="M 29.15625 0.953125 C 20.84375 0.953125 14.523438 -1.582031 10.203125 -6.65625 C 5.878906 -11.738281 3.71875 -18.878906 3.71875 -28.078125 L 3.71875 -77.15625 C 3.71875 -86.039062 5.878906 -92.742188 10.203125 -97.265625 C 14.523438 -101.785156 20.84375 -104.046875 29.15625 -104.046875 C 37.476562 -104.046875 43.796875 -101.785156 48.109375 -97.265625 C 52.429688 -92.742188 54.59375 -86.039062 54.59375 -77.15625 L 54.59375 -28.078125 C 54.59375 -18.796875 52.429688 -11.632812 48.109375 -6.59375 C 43.796875 -1.5625 37.476562 0.953125 29.15625 0.953125 Z M 29.15625 -18 C 31 -18 32.238281 -18.796875 32.875 -20.390625 C 33.519531 -21.992188 33.84375 -24.238281 33.84375 -27.125 L 33.84375 -77.515625 C 33.84375 -79.753906 33.539062 -81.570312 32.9375 -82.96875 C 32.34375 -84.375 31.125 -85.078125 29.28125 -85.078125 C 25.84375 -85.078125 24.125 -82.476562 24.125 -77.28125 L 24.125 -27 C 24.125 -24.039062 24.484375 -21.800781 25.203125 -20.28125 C 25.921875 -18.757812 27.238281 -18 29.15625 -18 Z M 29.15625 -18 "/></g></g></g><g fill="#000000" fill-opacity="1"><g transform="translate(937.958189, 1050.968265)"><g><path d="M 20.875 1.203125 C 14.71875 1.203125 10.039062 -0.992188 6.84375 -5.390625 C 3.644531 -9.796875 2.046875 -15.519531 2.046875 -22.5625 C 2.046875 -30.394531 3.164062 -36.691406 5.40625 -41.453125 C 7.644531 -46.210938 11.160156 -50.394531 15.953125 -54 C 12.035156 -61.675781 10.078125 -68.316406 10.078125 -73.921875 C 10.078125 -79.765625 11.976562 -84.34375 15.78125 -87.65625 C 19.582031 -90.976562 24.484375 -92.640625 30.484375 -92.640625 C 36.398438 -92.640625 41.257812 -91.054688 45.0625 -87.890625 C 48.863281 -84.734375 50.765625 -80.316406 50.765625 -74.640625 C 50.765625 -66.316406 46.160156 -58.515625 36.953125 -51.234375 L 40.6875 -42.484375 C 42.925781 -48.398438 46.285156 -53 50.765625 -56.28125 L 58.921875 -43.5625 C 54.203125 -39.882812 50.363281 -33.800781 47.40625 -25.3125 L 57.84375 0 L 37.921875 0 L 35.765625 -5.640625 C 34.078125 -3.640625 31.929688 -2 29.328125 -0.71875 C 26.734375 0.5625 23.914062 1.203125 20.875 1.203125 Z M 32.640625 -66.125 C 33.441406 -67 34.160156 -68.253906 34.796875 -69.890625 C 35.441406 -71.535156 35.765625 -73.117188 35.765625 -74.640625 C 35.765625 -77.035156 34.601562 -78.234375 32.28125 -78.234375 C 31.320312 -78.234375 30.5625 -77.894531 30 -77.21875 C 29.4375 -76.539062 29.15625 -75.679688 29.15625 -74.640625 C 29.15625 -72.554688 30 -69.359375 31.6875 -65.046875 Z M 24.125 -13.796875 C 25.644531 -13.796875 26.921875 -14.375 27.953125 -15.53125 C 28.992188 -16.695312 29.675781 -18.039062 30 -19.5625 L 22.921875 -36.59375 L 22.203125 -35.515625 C 21.554688 -34.554688 21.035156 -33.035156 20.640625 -30.953125 C 20.242188 -28.878906 20.046875 -26.84375 20.046875 -24.84375 L 20.046875 -24.234375 C 20.046875 -21.117188 20.285156 -18.597656 20.765625 -16.671875 C 21.242188 -14.753906 22.363281 -13.796875 24.125 -13.796875 Z M 24.125 -13.796875 "/></g></g></g><g fill="#000000" fill-opacity="1"><g transform="translate(998.567559, 1050.968265)"><g/></g></g><g fill="#000000" fill-opacity="1"><g transform="translate(1026.64757, 1050.968265)"><g/></g></g><g fill="#000000" fill-opacity="1"><g transform="translate(1027.901877, 1058.093145)"><g><path d="M 32.84375 1.109375 C 24.195312 1.109375 17.273438 -1.601562 12.078125 -7.03125 C 6.878906 -12.46875 4.28125 -19.921875 4.28125 -29.390625 L 4.28125 -84.046875 C 4.28125 -95.816406 6.625 -104.691406 11.3125 -110.671875 C 16.007812 -116.648438 23.367188 -119.640625 33.390625 -119.640625 C 42.128906 -119.640625 49.164062 -117.25 54.5 -112.46875 C 59.84375 -107.6875 62.515625 -100.785156 62.515625 -91.765625 L 62.515625 -71.34375 L 38.921875 -71.34375 L 38.921875 -88.875 C 38.921875 -92.28125 38.503906 -94.625 37.671875 -95.90625 C 36.847656 -97.195312 35.421875 -97.84375 33.390625 -97.84375 C 31.273438 -97.84375 29.828125 -97.101562 29.046875 -95.625 C 28.265625 -94.15625 27.875 -91.992188 27.875 -89.140625 L 27.875 -29.671875 C 27.875 -26.546875 28.332031 -24.269531 29.25 -22.84375 C 30.175781 -21.414062 31.554688 -20.703125 33.390625 -20.703125 C 37.078125 -20.703125 38.921875 -23.691406 38.921875 -29.671875 L 38.921875 -51.0625 L 62.796875 -51.0625 L 62.796875 -28.703125 C 62.796875 -8.828125 52.8125 1.109375 32.84375 1.109375 Z M 32.84375 1.109375 "/></g></g></g><g fill="#000000" fill-opacity="1"><g transform="translate(1093.315934, 1058.093145)"><g/></g><g transform="translate(1125.607931, 1058.093145)"><g/></g></g><g fill="#000000" fill-opacity="1"><g transform="translate(1157.909679, 1058.093145)"><g><path d="M 3.71875 0 L 3.71875 -20.140625 L 27.875 -20.140625 L 27.875 0 Z M 3.71875 0 "/></g></g></g><g fill="#000000" fill-opacity="1"><g transform="translate(1098.679494, 1061.543217)"><g><path d="M 29.15625 0.953125 C 20.84375 0.953125 14.523438 -1.582031 10.203125 -6.65625 C 5.878906 -11.738281 3.71875 -18.878906 3.71875 -28.078125 L 3.71875 -77.15625 C 3.71875 -86.039062 5.878906 -92.742188 10.203125 -97.265625 C 14.523438 -101.785156 20.84375 -104.046875 29.15625 -104.046875 C 37.476562 -104.046875 43.796875 -101.785156 48.109375 -97.265625 C 52.429688 -92.742188 54.59375 -86.039062 54.59375 -77.15625 L 54.59375 -28.078125 C 54.59375 -18.796875 52.429688 -11.632812 48.109375 -6.59375 C 43.796875 -1.5625 37.476562 0.953125 29.15625 0.953125 Z M 29.15625 -18 C 31 -18 32.238281 -18.796875 32.875 -20.390625 C 33.519531 -21.992188 33.84375 -24.238281 33.84375 -27.125 L 33.84375 -77.515625 C 33.84375 -79.753906 33.539062 -81.570312 32.9375 -82.96875 C 32.34375 -84.375 31.125 -85.078125 29.28125 -85.078125 C 25.84375 -85.078125 24.125 -82.476562 24.125 -77.28125 L 24.125 -27 C 24.125 -24.039062 24.484375 -21.800781 25.203125 -20.28125 C 25.921875 -18.757812 27.238281 -18 29.15625 -18 Z M 29.15625 -18 "/></g></g></g></svg>